PathFileType	4	(X/Y/Z)	C:\Users\ebm\Documents\Erivelton\Erivelton2\wc10.trc
DataRate	CameraRate	NumFrames	NumMarkers	Units	OrigDataRate	OrigDataStartFrame	OrigNumFrames
150.00	150.00	      60	28	mm	150.00	326	      1302
Frame#	Time	IJ			PX			C7			T8			RAC			RAS			RPS			RAI			RPI			RLE			RME			RRS			RUS			R3M			R5M			LAC			LAS			LPS			LAI			LPI			LLE			LME			LRS			LUS			L3M			L5M			RW			LW			V_mid_elbow_r			V_mid_elbow_l			V_mid_wrist_r			V_mid_wrist_l			V_mid_trunk_low			V_mid_trunk_upp			
		X1	Y1	Z1	X2	Y2	Z2	X3	Y3	Z3	X4	Y4	Z4	X5	Y5	Z5	X6	Y6	Z6	X7	Y7	Z7	X8	Y8	Z8	X9	Y9	Z9	X10	Y10	Z10	X11	Y11	Z11	X12	Y12	Z12	X13	Y13	Z13	X14	Y14	Z14	X15	Y15	Z15	X16	Y16	Z16	X17	Y17	Z17	X18	Y18	Z18	X19	Y19	Z19	X20	Y20	Z20	X21	Y21	Z21	X22	Y22	Z22	X23	Y23	Z23	X24	Y24	Z24	X25	Y25	Z25	X26	Y26	Z26	X27	Y27	Z27	X28	Y28	Z28	

326	2.167																																																																																					
327	2.173																																																																																					
328	2.180																																																																																					
329	2.187																																																																																					
330	2.193																																																																																					
331	2.200																																																																																					
332	2.207																																																																																					
333	2.213																																																																																					
334	2.220																																																																																					
335	2.227																																																																																					
336	2.233																																																																																					
337	2.240																																																																																					
338	2.247																																																																																					
339	2.253																																																																																					
340	2.260																																																																																					
341	2.267																																																																																					
342	2.273																																																																																					
343	2.280																																																																																					
344	2.287																																																																																					
345	2.293																																																																																					
346	2.300																																																																																					
347	2.307																																																																																					
348	2.313																																																																																					
349	2.320																																																																																					
350	2.327																																																																																					
351	2.333																																																																																					
352	2.340																																																																																					
353	2.347																																																																																					
354	2.353																																																																																					
355	2.360																																																																																					
356	2.367																																																																																					
357	2.373																																																																																					
358	2.380																																																																																					
359	2.387																																																																																					
360	2.393																																																																																					
361	2.400																																																																																					
362	2.407													-1737.84888	1011.88593	21.97982																																																																						
363	2.413							-1801.93506	1098.06848	-178.77756				-1730.16919	1012.73907	20.88391																																																																						
364	2.420							-1795.47070	1099.06689	-179.90125				-1722.71936	1013.64417	19.85041																																																																						
365	2.427							-1789.27161	1100.14709	-181.03850				-1715.45935	1014.56171	18.71460																																																																						
366	2.433							-1783.25195	1101.22913	-182.18219				-1708.51758	1015.57660	17.73415																																																																						
367	2.440							-1777.45190	1102.45776	-183.36351				-1701.74634	1016.48254	16.61887																																																																						
368	2.447							-1771.66089	1103.61011	-184.47299				-1695.21899	1017.40735	15.68520																																																																						
369	2.453							-1766.12622	1104.88733	-185.63048				-1688.87451	1018.26208	14.68565																																																																						
370	2.460							-1760.54700	1106.23047	-186.78151				-1682.81982	1019.19342	13.85991																																																																						
371	2.467							-1755.01477	1107.70532	-188.08701				-1676.76062	1019.93463	12.91750																																																																						
372	2.473							-1749.24158	1109.13867	-189.49319				-1670.61719	1020.38916	12.07124							-1693.16199	763.41992	111.99860																																																													
373	2.480							-1743.09106	1110.60046	-190.76105				-1664.35974	1020.67224	11.39767							-1677.13379	761.80219	107.50111																																																													
374	2.487							-1736.84912	1111.94727	-191.86037				-1657.55847	1020.55707	10.51944							-1661.23438	760.51593	102.70951	-1707.88037	772.28400	126.44565																																																										
375	2.493							-1730.65674	1112.83606	-192.81697				-1650.65112	1020.59277	9.66928							-1645.76099	759.44800	97.34952	-1692.65796	769.28979	121.40186																																																										
376	2.500							-1724.60522	1113.36829	-193.76007				-1643.54700	1020.66803	8.67129							-1630.80884	758.59662	91.39992	-1677.87439	766.58594	116.04360																																																										
377	2.507							-1718.64807	1113.45361	-194.61841				-1636.34351	1020.95551	7.65718							-1616.77747	758.13489	85.31766	-1663.92371	764.37335	110.35955																																																										
378	2.513							-1712.72644	1113.40881	-195.53326				-1629.25403	1021.49994	6.50213							-1603.91077	758.09680	79.58302	-1651.08618	762.87732	104.73183																																																										
379	2.520							-1706.63391	1113.24695	-196.48370				-1622.22888	1022.28070	5.49670							-1592.49658	759.85443	75.28968	-1639.34656	761.79309	99.62024																																																										
380	2.527							-1700.28186	1113.07410	-197.59073				-1615.17249	1023.19659	4.42423							-1581.39526	760.34650	71.39019	-1628.62012	761.44086	95.47472																																																										
381	2.533							-1693.75024	1112.87744	-198.73392				-1608.09851	1024.42078	3.33776							-1571.47485	761.87433	69.57874	-1618.71008	761.71332	92.99294																																																										
382	2.540							-1687.21985	1112.81421	-199.94075				-1601.04700	1025.68091	2.24620							-1562.42639	764.25897	69.54189	-1609.68384	762.45972	92.25329																												-1648.53345	762.53668	-453.43036																												
383	2.547							-1680.38794	1112.80701	-201.11147				-1594.36682	1027.08252	1.44021							-1553.97009	766.91827	70.77485	-1601.24756	763.71259	92.65758																												-1638.51965	762.76428	-453.66489																												
384	2.553							-1673.35315	1112.96399	-202.27869				-1587.85645	1028.55212	0.82882							-1545.60913	769.03040	72.35518	-1593.27185	765.69263	93.93008																												-1629.09448	763.45172	-454.96011																												
385	2.560							-1666.17212	1113.26208	-203.40036				-1581.41309	1029.99304	0.29831							-1537.47913	771.54523	74.29842	-1585.41919	767.87042	95.83319																												-1619.76526	764.27454	-456.64105																												
